<svg version="1.1" id="Layer_1" xmlns="http://www.w3.org/2000/svg" xmlns:xlink="http://www.w3.org/1999/xlink" x="0px" y="0px"
	 width="100%" viewBox="0 0 1704 477" enable-background="new 0 0 1704 477" xml:space="preserve">
<path fill="#FEFEFE" opacity="0.000000" stroke="none"
	d="
M1118.000000,478.000000
	C745.375916,478.000000 373.251862,478.000000 1.063887,478.000000
	C1.063887,319.060822 1.063887,160.121582 1.063887,1.091181
	C569.000000,1.091181 1137.000000,1.091181 1704.966064,1.091181
	C1704.966064,160.081726 1704.966064,319.040863 1704.966064,478.000000
	C1509.454712,478.000000 1313.977295,478.000000 1118.000000,478.000000
M831.002747,118.013794
	C831.002747,118.013794 831.047363,118.070068 831.557190,117.729507
	C831.829224,117.185219 832.101257,116.640930 832.899719,115.720566
	C840.463013,105.666115 850.509277,101.350266 863.090759,101.573158
	C882.512390,101.917236 901.951172,101.971107 921.369934,101.553368
	C933.814270,101.285667 945.057434,103.691765 954.828064,112.661850
	C955.146729,112.885796 955.465332,113.109734 955.759888,113.154945
	C955.759888,113.154945 955.606750,113.250221 955.755188,113.822144
	C956.166138,114.227592 956.577026,114.633041 957.066223,115.510582
	C957.203491,115.834442 957.445862,116.023407 957.947815,116.714455
	C958.636963,117.799248 959.326111,118.884041 959.994202,119.992104
	C959.994202,119.992104 960.025024,119.992325 960.084045,120.619789
	C960.349304,120.931084 960.614563,121.242378 960.778564,121.812912
	C960.778564,121.812912 960.981628,122.003242 960.991821,122.816818
	C961.653992,127.733124 962.851379,132.645370 962.888672,137.566422
	C963.082947,163.197754 962.981995,188.831329 962.983826,214.464127
	C962.983948,216.224899 962.983826,217.985672 962.983826,219.689972
	C980.682373,219.689972 997.726562,219.689972 1015.020203,219.689972
	C1015.020203,216.035141 1015.028442,212.724136 1015.018982,209.413177
	C1014.942505,182.622467 1014.862671,155.831772 1014.876831,128.214035
	C1014.699280,127.136703 1014.521790,126.059380 1014.530273,124.243713
	C1013.943665,121.174713 1013.357056,118.105713 1012.835022,114.465881
	C1012.585388,113.970108 1012.335815,113.474342 1012.091125,112.202034
	C1011.085754,109.391701 1010.080322,106.581367 1009.104370,103.359535
	C1009.104370,103.359535 1008.875427,103.016319 1008.862366,102.322586
	C1007.923279,100.521004 1006.984253,98.719429 1005.980042,96.209900
	C989.487671,65.642975 963.771301,49.992229 929.151611,49.417824
	C905.827881,49.030842 882.492249,49.276939 859.162476,49.367165
	C846.335571,49.416767 833.918457,51.854237 822.614685,58.025875
	C814.924988,62.224297 807.750916,67.367294 800.064331,72.267639
	C781.886536,55.175911 759.239197,48.973759 734.172852,49.287186
	C713.678833,49.543446 693.177856,49.217999 672.682556,49.418617
	C666.723389,49.476948 660.692627,50.017036 654.832092,51.088043
	C619.289612,57.583405 589.579102,90.170555 586.953552,125.813179
	C586.705750,129.626038 586.252991,133.438385 586.243225,137.251862
	C586.177185,163.052902 586.204773,188.854202 586.202087,214.655411
	C586.201904,216.278168 586.202026,217.900925 586.202026,220.077866
	C603.481995,220.077866 620.239990,220.109573 636.996094,219.945694
	C637.581177,219.939987 638.147278,217.986176 638.851196,216.019333
	C638.846863,188.014603 638.842590,160.009872 639.055359,131.249084
	C639.713867,128.162811 640.372314,125.076538 641.226318,121.778145
	C641.226318,121.778145 641.239502,121.489944 641.714050,121.128380
	C641.802429,120.748711 641.890808,120.369041 642.184937,119.745651
	C642.184937,119.745651 642.220642,119.428696 642.696289,119.096893
	C642.805237,118.734085 642.914124,118.371269 642.997131,118.003242
	C642.997131,118.003242 643.015503,118.023880 643.466064,117.751419
	C643.786316,117.142822 644.106506,116.534218 644.956970,115.457329
	C651.751038,106.646645 660.526367,101.679794 671.827271,101.673676
	C694.430603,101.661430 717.038269,101.400528 739.635803,101.761368
	C755.867798,102.020561 767.874695,109.268143 773.808044,125.929123
	C774.136963,131.231857 774.727783,136.533508 774.749817,141.837509
	C774.850220,165.971939 774.790466,190.107056 774.788269,214.241913
	C774.788086,216.016861 774.788330,217.791809 774.788330,219.640930
	C792.516785,219.640930 809.695251,219.640930 827.021606,219.640930
	C827.021606,195.457672 826.957825,171.660828 827.059692,147.864685
	C827.090881,140.568970 827.575806,133.275208 828.145691,125.408104
	C828.369263,124.595947 828.592773,123.783783 829.150208,122.410217
	C829.430115,121.606087 829.709961,120.801964 830.002441,119.998184
	C830.002441,119.998184 829.995178,119.985382 830.453918,119.624290
	C830.660461,119.091537 830.866943,118.558784 831.002747,118.013794
M1620.878418,123.075821
	C1620.878418,123.075821 1620.758667,123.077812 1620.790405,123.762428
	C1621.125488,124.575714 1621.460449,125.389008 1621.822144,126.069771
	C1621.822144,126.069771 1621.689941,126.097389 1621.690063,126.935410
	C1621.945801,128.583374 1622.201416,130.231354 1622.353882,132.819473
	C1622.477295,137.216248 1622.600708,141.613022 1622.426514,146.901520
	C1622.396362,153.692642 1622.304810,160.484161 1622.348877,167.274796
	C1622.432617,180.179596 1622.594116,193.083862 1622.429688,206.858612
	C1622.532715,209.910675 1622.635620,212.962738 1622.429688,216.792816
	C1621.993774,219.068909 1622.724731,220.079193 1625.247559,220.065887
	C1640.945679,219.983078 1656.644897,220.049438 1672.342651,219.931198
	C1673.125000,219.925308 1673.897949,218.662247 1674.848511,217.064545
	C1674.788208,190.021667 1674.727905,162.978775 1674.842407,135.322861
	C1674.781128,134.906769 1674.719971,134.490677 1674.775146,133.364166
	C1674.609131,131.932495 1674.443115,130.500824 1674.354248,128.163269
	C1673.828125,124.455421 1673.302124,120.747566 1672.797729,116.271019
	C1662.081299,74.513855 1629.702759,49.341206 1586.685181,49.336670
	C1542.692871,49.332035 1498.700562,49.310333 1454.708374,49.382637
	C1450.395752,49.389725 1446.021362,49.644337 1441.781860,50.389187
	C1385.473877,60.282253 1354.097778,119.239243 1378.308105,170.845459
	C1392.190918,200.437958 1416.287720,216.688568 1449.931396,219.961197
	C1495.951172,219.978119 1541.971069,219.997055 1587.990845,219.998520
	C1588.973755,219.998550 1589.956787,219.797195 1591.513184,219.247726
	C1591.435303,217.497955 1591.357544,215.748184 1591.566040,213.174149
	C1591.468872,211.447037 1591.371826,209.719925 1591.569092,207.099823
	C1591.469116,197.736053 1591.369141,188.372269 1591.558350,178.183929
	C1591.459595,176.454620 1591.360718,174.725311 1591.670898,172.266190
	C1591.373657,170.895447 1591.076294,169.524719 1590.749023,168.015305
	C1544.429932,168.015305 1498.238159,168.015305 1451.335815,167.727463
	C1438.882080,165.620361 1429.799927,158.870468 1425.001831,147.237503
	C1415.831909,125.004860 1431.977051,101.793381 1456.644531,101.710854
	C1499.289429,101.568161 1541.938477,101.971268 1584.578857,101.511681
	C1600.533813,101.339706 1612.206421,107.168022 1619.937744,121.664650
	C1620.237305,122.172440 1620.536865,122.680237 1620.878418,123.075821
M229.199905,171.766159
	C230.132553,171.830627 231.065216,171.895111 232.492996,172.443298
	C242.634888,178.993973 253.141052,185.055069 262.806061,192.246628
	C270.875244,198.250763 277.286133,206.214462 281.915405,215.238358
	C285.274475,221.786240 287.848633,228.736786 290.730042,235.408875
	C303.428955,235.408875 316.019043,235.408875 329.200806,235.408875
	C327.573792,230.012466 326.434570,224.856766 324.471924,220.036316
	C321.258698,212.144455 318.108734,204.120972 313.831482,196.795670
	C308.779236,188.143082 303.073914,179.749054 296.716156,172.011673
	C288.167175,161.607574 277.737213,153.231567 265.947205,146.463867
	C255.723892,140.595474 245.111206,136.075531 232.970337,133.245148
	C230.467545,132.749863 227.964752,132.254562 224.983826,131.664642
	C224.983826,144.223389 224.872818,156.008728 225.154541,167.784653
	C225.182892,168.970093 227.587662,170.098663 228.911514,171.145950
	C228.911514,171.145950 228.805862,171.176086 229.199905,171.766159
M348.500000,256.000000
	C323.209045,256.000000 297.918091,256.000000 274.246948,256.000000
	C269.176331,265.902893 265.672516,275.514130 259.850342,283.417450
	C252.531067,293.352966 241.680054,298.930145 229.467529,301.908691
	C214.568909,305.542358 199.516205,305.406586 185.956161,299.140015
	C170.245758,291.879669 160.617294,278.618988 156.538696,261.118439
	C152.045502,241.838974 155.204941,224.289566 165.551666,207.887405
	C170.174469,200.559113 176.412735,194.592453 184.893341,191.702728
	C190.414124,189.821548 196.062973,188.316208 201.841003,186.586639
	C201.841003,134.620453 201.841003,81.890762 201.841003,28.837564
	C197.878220,28.837564 194.215424,29.089632 190.604416,28.765165
	C187.140594,28.453924 185.876205,30.225992 185.066849,33.090958
	C183.453384,38.802181 181.832153,44.515228 180.022507,50.166157
	C176.353165,61.624359 172.659714,73.077553 168.722321,84.444870
	C167.958633,86.649628 166.478745,89.260071 164.573883,90.300720
	C157.003525,94.436485 149.144943,98.047501 141.357803,101.779160
	C140.597351,102.143593 139.410660,102.371658 138.732269,102.035851
	C132.992691,99.194748 127.327766,96.203041 121.635742,93.265633
	C108.354187,86.411606 95.070015,79.562637 81.845512,72.741844
	C68.113083,84.716301 54.745461,96.372650 41.365356,108.032219
	C45.253891,115.602798 49.096817,123.197235 53.041706,130.738327
	C58.883690,141.905945 64.576553,153.161545 70.800217,164.114151
	C73.014847,168.011520 73.451263,171.336487 71.776253,175.364380
	C69.372375,181.144974 66.749786,186.920990 65.247391,192.954636
	C64.463890,196.101196 63.225395,197.548920 60.468899,198.367996
	C49.861435,201.519989 39.277431,204.752136 28.651939,207.841782
	C22.971518,209.493530 17.224264,210.915466 11.250308,212.509659
	C11.170601,213.717545 11.011170,215.017883 11.010054,216.318375
	C10.994180,234.814362 11.098286,253.311340 10.913651,271.805511
	C10.878410,275.335480 11.814219,277.185974 15.269976,278.305908
	C29.204126,282.821747 43.101719,287.460876 56.908310,292.349548
	C59.203667,293.162323 62.612671,295.323059 62.740173,297.063568
	C63.895412,312.833710 63.238823,328.389404 56.206608,343.144531
	C52.106152,351.748138 48.839981,360.759369 45.422661,369.673187
	C44.229099,372.786499 43.826836,375.905273 47.314152,378.462463
	C49.532467,380.089142 51.028831,382.686981 52.896374,384.807587
	C62.047329,395.198669 71.214226,405.575653 80.472252,416.067291
	C90.901817,410.343689 100.988213,404.799103 111.083763,399.271210
	C118.251778,395.346344 125.735970,391.898254 132.500763,387.372894
	C137.053726,384.327118 140.722931,384.249756 145.317810,386.654785
	C149.956619,389.082764 154.754410,391.515991 159.775238,392.820526
	C165.073349,394.197052 167.476471,397.439178 168.916748,402.165131
	C171.079575,409.261932 173.333527,416.330994 175.550888,423.411163
	C178.750854,433.628845 182.014267,443.827271 185.112946,454.075562
	C185.945023,456.827515 187.158035,458.114777 190.319901,458.080322
	C205.981339,457.909668 221.646606,457.908752 237.308075,458.076477
	C240.371170,458.109253 241.782593,457.132172 242.620789,454.261505
	C244.004883,449.521210 245.833054,444.912628 247.324417,440.201172
	C250.652481,429.687103 253.779846,419.108490 257.202118,408.625763
	C259.253815,402.341248 260.879486,395.902191 268.887054,393.798340
	C276.347107,391.838409 283.488251,388.675995 290.805634,386.146576
	C291.631256,385.861145 292.843842,385.956696 293.616821,386.366394
	C309.561127,394.817535 325.448883,403.375458 341.400085,411.813477
	C344.074463,413.228180 346.689087,415.840302 350.025787,412.456665
	C359.709015,402.637177 369.548767,392.972076 379.329987,383.249268
	C386.449188,376.172577 386.443878,376.177948 382.329102,367.223877
	C381.572632,365.577759 381.005554,363.838715 380.175781,362.233124
	C374.258575,350.783630 368.161804,339.423645 362.470276,327.863831
	C361.435577,325.762299 361.272736,322.657959 361.949768,320.386902
	C364.815155,310.775116 367.955078,301.230438 371.465546,291.837250
	C372.230530,289.790405 374.677307,287.902893 376.801910,286.936981
	C380.526398,285.243622 384.610870,284.350586 388.526703,283.067841
	C399.193237,279.573669 409.807587,275.913422 420.523071,272.577362
	C431.873566,269.043579 431.916565,269.173401 431.283569,257.268341
	C431.268372,256.982086 431.028564,256.707764 430.687042,256.000000
	C403.753387,256.000000 376.626709,256.000000 348.500000,256.000000
M1133.977905,99.537399
	C1122.505493,84.200134 1111.024414,68.869354 1099.569458,53.519043
	C1097.745605,51.074875 1096.028687,49.187706 1092.364502,49.232109
	C1073.703369,49.458237 1055.038086,49.332268 1036.374268,49.361858
	C1035.328125,49.363518 1034.282593,49.653381 1032.909424,49.857830
	C1033.505005,50.846924 1033.795532,51.437790 1034.182495,51.956722
	C1070.218262,100.281319 1105.897705,148.877411 1142.422119,196.829895
	C1170.351440,233.498032 1224.076782,232.442307 1251.591553,195.520447
	C1286.715454,148.387680 1321.866577,101.275139 1356.991455,54.143024
	C1358.001343,52.787868 1358.849365,51.311981 1360.136230,49.333931
	C1339.999146,49.333931 1320.843994,49.449089 1301.692261,49.238892
	C1297.758667,49.195721 1295.388306,50.455055 1293.057495,53.584885
	C1265.604736,90.449936 1238.013184,127.211639 1210.440063,163.986984
	C1202.091797,175.121552 1190.658081,175.165085 1182.343140,164.087494
	C1166.345459,142.774536 1150.383545,121.434578 1133.977905,99.537399
M649.500854,309.829865
	C646.334534,309.829437 643.168091,309.812775 640.001892,309.831085
	C610.116638,310.003967 586.915405,333.295685 586.832397,363.255524
	C586.788086,379.254150 586.819641,395.253021 586.837585,411.251770
	C586.839417,412.852264 586.985291,414.452637 587.063965,416.045654
	C598.037048,416.045654 608.585999,416.045654 619.422668,416.045654
	C619.422668,413.607819 619.422852,411.624390 619.422668,409.640961
	C619.421326,394.308807 619.331970,378.975983 619.446655,363.644714
	C619.536255,351.659821 627.765930,342.815430 639.605652,342.532928
	C654.096375,342.187195 668.608521,342.151154 683.098083,342.513580
	C696.375488,342.845673 704.183838,351.358276 704.192810,364.584137
	C704.203308,380.082947 704.198059,395.581726 704.199585,411.080536
	C704.199768,412.700165 704.199646,414.319763 704.199646,416.176941
	C715.359558,416.176941 725.941833,416.176941 736.999939,416.176941
	C736.999939,414.146423 736.999878,412.346741 736.999939,410.547028
	C737.000488,395.048218 736.945618,379.549133 737.018982,364.050690
	C737.078125,351.549438 745.428833,342.696442 757.755920,342.481812
	C771.917175,342.235260 786.090759,342.200104 800.250244,342.494171
	C813.952393,342.778748 821.955078,351.340790 821.988586,365.130890
	C822.025757,380.462952 821.998230,395.795166 821.998901,411.127319
	C821.998962,412.751251 821.998901,414.375183 821.998901,416.026245
	C833.066589,416.026245 843.608398,416.026245 854.443970,416.026245
	C854.443970,397.653656 854.688660,379.676178 854.388245,361.707825
	C853.903809,332.737213 830.690186,309.974091 801.829041,309.847076
	C786.997192,309.781799 772.164673,309.805023 757.332886,309.877747
	C754.348755,309.892395 751.336365,310.116913 748.389099,310.578003
	C737.754150,312.241791 728.705811,317.293243 720.606995,324.389496
	C710.654419,315.202179 699.065674,310.489746 685.990540,310.013062
	C674.173950,309.582275 662.331543,309.862915 649.500854,309.829865
M1628.359619,344.830811
	C1635.840942,349.342529 1639.456055,355.778503 1639.270630,364.698944
	C1638.983398,378.521423 1639.192017,392.354156 1639.190430,406.182556
	C1639.190063,409.457489 1639.190308,412.732422 1639.190308,416.256165
	C1650.403320,416.256165 1661.008667,416.256165 1671.810059,416.256165
	C1671.880981,414.711914 1671.992920,413.397430 1671.993896,412.082886
	C1672.005249,395.422180 1672.049072,378.761292 1671.989502,362.100800
	C1671.889893,334.245270 1649.033081,310.379150 1621.202881,309.947662
	C1591.720581,309.490540 1562.219238,309.461243 1532.738159,309.956146
	C1503.737061,310.442993 1481.283691,334.945709 1481.826904,364.499573
	C1482.354004,393.172424 1505.909424,416.467743 1534.431274,416.495270
	C1561.087769,416.520966 1587.744385,416.520172 1614.400879,416.530884
	C1616.192017,416.531616 1617.983276,416.530975 1619.870605,416.530975
	C1619.870605,405.377136 1619.870605,394.798920 1619.870605,383.829285
	C1617.776245,383.829285 1615.977905,383.829346 1614.179565,383.829285
	C1588.355469,383.828094 1562.531250,383.836700 1536.707153,383.821594
	C1523.700562,383.813995 1514.504883,375.260590 1514.567139,363.279053
	C1514.631226,350.950043 1523.418701,342.569336 1536.498657,342.546875
	C1563.489014,342.500610 1590.479736,342.467407 1617.469238,342.619476
	C1620.877075,342.638641 1624.278198,343.804077 1628.359619,344.830811
M1049.608154,416.532349
	C1051.550049,416.532349 1053.492065,416.532349 1055.799561,416.532349
	C1055.799561,398.366882 1055.837646,380.897797 1055.791016,363.428894
	C1055.710815,333.328766 1032.271118,309.883820 1002.196838,309.838043
	C974.535278,309.795929 946.873596,309.799561 919.212097,309.857239
	C915.896912,309.864166 912.520813,310.015869 909.277527,310.642059
	C880.850891,316.130493 863.054871,340.404388 865.863831,369.682556
	C868.398376,396.099518 891.573669,416.377197 919.351685,416.414978
	C945.680115,416.450806 972.008728,416.424133 998.337219,416.424927
	C999.967468,416.424988 1001.597717,416.424957 1003.498657,416.424957
	C1003.498657,405.355255 1003.498657,394.794189 1003.498657,384.078979
	C1002.060303,383.982758 1000.918762,383.840302 999.777039,383.839722
	C973.448547,383.826416 947.119995,383.833740 920.791504,383.816681
	C918.965027,383.815521 917.105164,383.847076 915.317688,383.536530
	C904.766724,381.703461 897.501038,372.387726 898.170166,361.683380
	C898.821045,351.270752 907.337463,342.701843 918.239746,342.595642
	C946.398254,342.321320 974.562561,342.278381 1002.721130,342.525543
	C1014.756042,342.631195 1022.961792,351.742981 1022.990295,363.970978
	C1023.026794,379.634705 1022.998474,395.298553 1022.998169,410.962372
	C1022.998108,412.711365 1022.998169,414.460358 1022.998169,416.525085
	C1032.067993,416.525085 1040.393433,416.525085 1049.608154,416.532349
M269.458832,59.939495
	C277.287384,63.419456 285.150513,66.824089 292.937195,70.395340
	C308.359467,77.468498 322.817841,86.254150 335.660645,97.275124
	C345.865021,106.031975 355.610809,115.452980 364.622803,125.426193
	C371.173492,132.675583 377.122131,140.817505 381.676453,149.439728
	C388.318390,162.014130 393.897278,175.208710 399.091278,188.467209
	C402.206604,196.419525 404.035370,204.929245 405.869812,213.313721
	C407.452911,220.549423 408.226593,227.962219 409.355469,235.279602
	C424.048431,235.279602 438.265228,235.279602 453.450073,235.279602
	C450.565521,221.784195 448.578430,208.628540 444.825714,195.997467
	C440.943878,182.931671 435.878540,170.139771 430.345459,157.665176
	C425.306915,146.305603 419.661530,135.077423 413.000458,124.607727
	C403.157990,109.137642 391.588776,94.986519 378.438690,81.979164
	C363.174408,66.880524 346.176483,54.274364 327.687469,43.771660
	C311.807068,34.750809 295.130432,27.145191 277.303925,22.520922
	C262.735443,18.741793 248.175507,14.923888 233.553207,11.363741
	C230.951309,10.730244 228.062820,11.273714 225.253937,11.273714
	C225.253937,23.463280 225.253937,35.386921 225.253937,47.109608
	C234.621063,49.705677 243.692764,52.183800 252.741989,54.741428
	C258.116486,56.260445 263.455566,57.904694 269.458832,59.939495
M1098.000732,404.482056
	C1098.000732,396.202423 1098.000732,387.922791 1098.000732,379.385956
	C1099.306885,379.293884 1100.106201,379.188904 1100.905518,379.188293
	C1117.565552,379.176025 1134.226929,379.080322 1150.884155,379.297638
	C1152.887695,379.323730 1155.299438,380.617249 1156.791382,382.072449
	C1167.524414,392.540771 1177.992920,403.280853 1188.756348,413.717041
	C1190.330200,415.243073 1192.999756,416.319519 1195.203857,416.395599
	C1204.023315,416.700043 1212.859253,416.528564 1221.689087,416.531647
	C1226.453003,416.533325 1231.216919,416.531952 1237.328491,416.531952
	C1218.899780,398.022949 1201.481567,380.528931 1183.205322,362.173218
	C1200.813721,344.625275 1218.173584,327.324921 1235.729492,309.829346
	C1222.309204,309.829346 1208.866699,309.694214 1195.432129,309.957947
	C1193.101562,310.003693 1190.253662,311.166412 1188.581055,312.782471
	C1177.919678,323.083038 1167.606567,333.744110 1156.945557,344.045197
	C1155.275146,345.659271 1152.437378,346.803802 1150.104126,346.867218
	C1139.282959,347.161407 1128.449585,346.998138 1117.620483,346.998444
	C1111.185669,346.998627 1104.750854,346.998444 1097.838867,346.998444
	C1097.838867,323.358551 1097.838867,300.301422 1097.838867,277.293701
	C1086.767456,277.293701 1076.186279,277.293701 1065.567627,277.293701
	C1065.567627,323.776337 1065.567627,369.959045 1065.567627,416.233154
	C1076.535767,416.233154 1087.127686,416.233154 1098.000732,416.233154
	C1098.000732,412.446503 1098.000732,408.959320 1098.000732,404.482056
M1465.538208,352.092621
	C1459.590454,327.572876 1439.516357,310.283447 1415.579224,309.932068
	C1389.922119,309.555420 1364.250610,309.535950 1338.593872,309.923767
	C1310.996338,310.340851 1287.965332,334.069733 1287.848389,361.572174
	C1287.777588,378.235931 1287.823730,394.900208 1287.837036,411.564270
	C1287.838135,413.021698 1287.986328,414.479004 1288.079102,416.171021
	C1298.770752,416.171021 1309.178345,416.171021 1320.171753,416.171021
	C1320.171753,414.202545 1320.171631,412.415039 1320.171631,410.627533
	C1320.171265,395.629883 1320.067017,380.631317 1320.200073,365.634857
	C1320.333496,350.599670 1328.633179,342.442017 1343.518066,342.434082
	C1365.681274,342.422241 1387.844482,342.418213 1410.007690,342.435333
	C1425.899170,342.447632 1433.815674,350.462555 1433.827759,366.526123
	C1433.838989,381.357117 1433.818604,396.188141 1433.834473,411.019135
	C1433.836426,412.759674 1433.981079,414.500061 1434.051880,416.073059
	C1445.126221,416.073059 1455.550415,416.073059 1465.725952,416.073059
	C1465.725952,394.779938 1465.725952,373.840515 1465.538208,352.092621
M340.721313,208.953476
	C342.807922,216.066849 345.075409,223.134003 346.909210,230.311951
	C347.912140,234.237640 349.495667,236.017456 353.961273,235.800659
	C362.769714,235.373093 371.613434,235.672501 380.442566,235.671356
	C382.498077,235.671097 384.553558,235.671310 386.617737,235.671310
	C386.314545,231.833389 386.668945,228.673447 385.749878,225.941986
	C380.288330,209.709641 375.630859,193.073318 368.530975,177.567368
	C362.735352,164.909927 354.445648,153.255920 346.301849,141.841934
	C330.784454,120.093384 310.300476,103.884987 286.667084,91.685005
	C272.239319,84.237144 256.794525,79.397263 241.078171,75.521240
	C235.987457,74.265747 230.681366,73.883461 225.344971,73.082405
	C225.344971,85.650230 225.344971,98.035027 225.344971,110.558327
	C238.936417,111.402779 250.966110,116.373055 262.808685,121.793800
	C275.201904,127.466621 286.590698,134.765503 296.767273,143.895828
	C308.291901,154.235596 318.499664,165.719116 325.952728,179.335159
	C331.119751,188.774872 335.550354,198.617691 340.721313,208.953476
M530.903625,14.690361
	C530.112549,13.390883 529.419556,11.054688 528.513672,10.968993
	C524.290894,10.569528 520.009277,10.791936 515.578979,10.791936
	C515.578979,160.177429 515.578979,308.869537 515.578979,457.711243
	C520.749390,457.711243 525.635193,457.711243 530.904114,457.711243
	C530.904114,310.135986 530.904114,162.894241 530.903625,14.690361
M182.312836,223.999313
	C181.710220,225.311188 181.116989,226.627472 180.503571,227.934280
	C173.557037,242.733276 175.234116,256.725616 185.727448,269.011597
	C197.064072,282.285004 212.816574,284.835693 227.810547,279.222443
	C239.995041,274.660980 248.070786,265.059540 250.505997,251.691833
	C254.208694,231.366486 243.480545,213.543152 224.637238,208.522598
	C207.639481,203.993805 193.990891,207.916794 182.312836,223.999313
M1272.422363,385.500122
	C1272.422363,360.420349 1272.422363,335.340576 1272.422363,310.176392
	C1261.219727,310.176392 1250.672241,310.176392 1240.202637,310.176392
	C1240.202637,345.746674 1240.202637,380.963287 1240.202637,416.126984
	C1251.015137,416.126984 1261.446289,416.126984 1272.422607,416.126984
	C1272.422607,406.059021 1272.422607,396.279602 1272.422363,385.500122
M1272.422729,285.513153
	C1272.422729,282.768738 1272.422729,280.024292 1272.422729,277.337463
	C1261.142700,277.337463 1250.598389,277.337463 1240.170044,277.337463
	C1240.170044,283.746185 1240.170044,289.809662 1240.170044,295.806458
	C1251.066040,295.806458 1261.611328,295.806458 1272.422729,295.806458
	C1272.422729,292.465088 1272.422729,289.484680 1272.422729,285.513153
z"/>
<path fill="#565656" opacity="1.000000" stroke="none"
	d="
M349.000000,256.000000
	C376.626709,256.000000 403.753387,256.000000 430.687042,256.000000
	C431.028564,256.707764 431.268372,256.982086 431.283569,257.268341
	C431.916565,269.173401 431.873566,269.043579 420.523071,272.577362
	C409.807587,275.913422 399.193237,279.573669 388.526703,283.067841
	C384.610870,284.350586 380.526398,285.243622 376.801910,286.936981
	C374.677307,287.902893 372.230530,289.790405 371.465546,291.837250
	C367.955078,301.230438 364.815155,310.775116 361.949768,320.386902
	C361.272736,322.657959 361.435577,325.762299 362.470276,327.863831
	C368.161804,339.423645 374.258575,350.783630 380.175781,362.233124
	C381.005554,363.838715 381.572632,365.577759 382.329102,367.223877
	C386.443878,376.177948 386.449188,376.172577 379.329987,383.249268
	C369.548767,392.972076 359.709015,402.637177 350.025787,412.456665
	C346.689087,415.840302 344.074463,413.228180 341.400085,411.813477
	C325.448883,403.375458 309.561127,394.817535 293.616821,386.366394
	C292.843842,385.956696 291.631256,385.861145 290.805634,386.146576
	C283.488251,388.675995 276.347107,391.838409 268.887054,393.798340
	C260.879486,395.902191 259.253815,402.341248 257.202118,408.625763
	C253.779846,419.108490 250.652481,429.687103 247.324417,440.201172
	C245.833054,444.912628 244.004883,449.521210 242.620789,454.261505
	C241.782593,457.132172 240.371170,458.109253 237.308075,458.076477
	C221.646606,457.908752 205.981339,457.909668 190.319901,458.080322
	C187.158035,458.114777 185.945023,456.827515 185.112946,454.075562
	C182.014267,443.827271 178.750854,433.628845 175.550888,423.411163
	C173.333527,416.330994 171.079575,409.261932 168.916748,402.165131
	C167.476471,397.439178 165.073349,394.197052 159.775238,392.820526
	C154.754410,391.515991 149.956619,389.082764 145.317810,386.654785
	C140.722931,384.249756 137.053726,384.327118 132.500763,387.372894
	C125.735970,391.898254 118.251778,395.346344 111.083763,399.271210
	C100.988213,404.799103 90.901817,410.343689 80.472252,416.067291
	C71.214226,405.575653 62.047329,395.198669 52.896374,384.807587
	C51.028831,382.686981 49.532467,380.089142 47.314152,378.462463
	C43.826836,375.905273 44.229099,372.786499 45.422661,369.673187
	C48.839981,360.759369 52.106152,351.748138 56.206608,343.144531
	C63.238823,328.389404 63.895412,312.833710 62.740173,297.063568
	C62.612671,295.323059 59.203667,293.162323 56.908310,292.349548
	C43.101719,287.460876 29.204126,282.821747 15.269976,278.305908
	C11.814219,277.185974 10.878410,275.335480 10.913651,271.805511
	C11.098286,253.311340 10.994180,234.814362 11.010054,216.318375
	C11.011170,215.017883 11.170601,213.717545 11.250308,212.509659
	C17.224264,210.915466 22.971518,209.493530 28.651939,207.841782
	C39.277431,204.752136 49.861435,201.519989 60.468899,198.367996
	C63.225395,197.548920 64.463890,196.101196 65.247391,192.954636
	C66.749786,186.920990 69.372375,181.144974 71.776253,175.364380
	C73.451263,171.336487 73.014847,168.011520 70.800217,164.114151
	C64.576553,153.161545 58.883690,141.905945 53.041706,130.738327
	C49.096817,123.197235 45.253891,115.602798 41.371593,108.030609
	C54.745461,96.372650 68.113083,84.716301 81.845512,72.741844
	C95.070015,79.562637 108.354187,86.411606 121.635742,93.265633
	C127.327766,96.203041 132.992691,99.194748 138.732269,102.035851
	C139.410660,102.371658 140.597351,102.143593 141.357803,101.779160
	C149.144943,98.047501 157.003525,94.436485 164.573883,90.300720
	C166.478745,89.260071 167.958633,86.649628 168.722321,84.444870
	C172.659714,73.077553 176.353165,61.624359 180.022507,50.166157
	C181.832153,44.515228 183.453384,38.802181 185.066849,33.090958
	C185.876205,30.225992 187.140594,28.453924 190.604416,28.765165
	C194.215424,29.089632 197.878220,28.837564 201.841003,28.837564
	C201.841003,81.890762 201.841003,134.620453 201.841003,186.586639
	C196.062973,188.316208 190.414124,189.821548 184.893341,191.702728
	C176.412735,194.592453 170.174469,200.559113 165.551666,207.887405
	C155.204941,224.289566 152.045502,241.838974 156.538696,261.118439
	C160.617294,278.618988 170.245758,291.879669 185.956161,299.140015
	C199.516205,305.406586 214.568909,305.542358 229.467529,301.908691
	C241.680054,298.930145 252.531067,293.352966 259.850342,283.417450
	C265.672516,275.514130 269.176331,265.902893 274.246948,256.000000
	C297.918091,256.000000 323.209045,256.000000 349.000000,256.000000
z"/>
<path fill="#3966A1" opacity="1.000000" stroke="none"
	d="
M1008.875427,103.016327
	C1008.875427,103.016319 1009.104370,103.359535 1009.065186,103.990173
	C1010.046082,107.406731 1011.066162,110.192642 1012.086243,112.978561
	C1012.335815,113.474342 1012.585388,113.970108 1012.567078,115.043121
	C1012.980835,118.740929 1013.662537,121.861488 1014.344238,124.982048
	C1014.521790,126.059380 1014.699280,127.136703 1014.579590,128.951874
	C1014.187439,151.640289 1014.086304,173.590820 1014.001465,195.541428
	C1013.976379,202.030304 1014.142212,208.525467 1013.868225,215.002838
	C1013.817078,216.212906 1012.091614,218.367706 1011.132812,218.371109
	C997.346130,218.419907 983.556580,217.983154 969.771851,218.109360
	C965.263062,218.150650 963.846497,217.022186 963.885681,212.330368
	C964.112244,185.211670 964.090210,158.089371 963.864380,130.970657
	C963.839417,127.973724 961.986694,124.992004 960.981689,122.003235
	C960.981628,122.003242 960.778564,121.812912 960.790039,121.371109
	C960.542725,120.616989 960.283875,120.304657 960.025024,119.992325
	C960.025024,119.992325 959.994202,119.992104 959.998718,119.595787
	C959.266602,118.158806 958.530029,117.118134 957.793457,116.077477
	C957.445862,116.023407 957.203491,115.834442 957.000122,114.950851
	C956.491638,114.010811 956.049194,113.630508 955.606750,113.250214
	C955.606750,113.250221 955.759888,113.154945 955.704956,112.930222
	C955.289429,112.508080 954.928833,112.310661 954.568237,112.113251
	C945.057434,103.691765 933.814270,101.285667 921.369934,101.553368
	C901.951172,101.971107 882.512390,101.917236 863.090759,101.573158
	C850.509277,101.350266 840.463013,105.666115 832.321533,116.011978
	C831.511353,116.892281 831.279358,117.481163 831.047363,118.070061
	C831.047363,118.070068 831.002747,118.013794 830.777588,118.168320
	C830.366699,118.877022 830.180969,119.431206 829.995178,119.985382
	C829.995178,119.985382 830.002441,119.998184 829.679932,120.037605
	C829.177063,121.041893 828.996704,122.006752 828.816284,122.971619
	C828.592773,123.783783 828.369263,124.595947 827.615112,125.803772
	C826.722961,128.059021 826.051392,129.917786 826.046631,131.778275
	C825.979004,158.408997 826.001404,185.039948 826.002075,211.670853
	C826.002136,213.606949 826.002014,215.543045 826.002014,218.006165
	C820.569763,218.006165 815.865967,218.006302 811.162170,218.006134
	C801.175598,218.005798 791.183472,217.812057 781.205017,218.096725
	C777.013489,218.216293 775.880737,216.881134 775.907715,212.755951
	C776.080383,186.292633 776.062561,159.827225 775.900146,133.363770
	C775.883179,130.592438 774.514771,127.829391 773.773315,125.062515
	C767.874695,109.268143 755.867798,102.020561 739.635803,101.761368
	C717.038269,101.400528 694.430603,101.661430 671.827271,101.673676
	C660.526367,101.679794 651.751038,106.646645 644.427551,115.779694
	C643.603943,116.742668 643.309753,117.383278 643.015503,118.023880
	C643.015503,118.023880 642.997131,118.003242 642.765259,118.168297
	C642.429077,118.698463 642.324829,119.063576 642.220581,119.428688
	C642.220642,119.428696 642.184937,119.745651 641.846252,120.051582
	C641.418213,120.734985 641.328857,121.112465 641.239502,121.489944
	C641.239502,121.489944 641.226318,121.778145 640.807739,122.057541
	C639.872253,125.559677 639.355286,128.782410 638.838257,132.005142
	C638.842590,160.009872 638.846863,188.014603 638.395630,216.569427
	C637.162048,217.406921 636.390381,217.925720 635.604980,217.947403
	C621.506104,218.336792 607.406677,218.743134 593.304504,218.954590
	C589.725220,219.008270 587.815918,217.472733 587.849243,213.155502
	C588.060852,185.704224 587.973389,158.250519 587.925110,130.797714
	C587.921753,128.865036 587.441956,126.933220 587.183716,125.001007
	C589.579102,90.170555 619.289612,57.583405 654.832092,51.088043
	C660.692627,50.017036 666.723389,49.476948 672.682556,49.418617
	C693.177856,49.217999 713.678833,49.543446 734.172852,49.287186
	C759.239197,48.973759 781.886536,55.175911 800.064331,72.267639
	C807.750916,67.367294 814.924988,62.224297 822.614685,58.025875
	C833.918457,51.854237 846.335571,49.416767 859.162476,49.367165
	C882.492249,49.276939 905.827881,49.030842 929.151611,49.417824
	C963.771301,49.992229 989.487671,65.642975 1005.999451,96.951431
	C1006.971069,99.467415 1007.923218,101.241867 1008.875427,103.016327
z"/>
<path fill="#3966A1" opacity="1.000000" stroke="none"
	d="
M1622.738525,216.014801
	C1622.635620,212.962738 1622.532715,209.910675 1622.891479,206.241776
	C1623.561035,205.017822 1623.949219,204.411057 1623.950317,203.803574
	C1623.985107,185.523865 1624.001343,167.244019 1623.930420,148.964584
	C1623.926514,147.978119 1623.143921,146.994690 1622.723999,146.009827
	C1622.600708,141.613022 1622.477295,137.216248 1622.585205,132.044067
	C1622.441040,129.544922 1622.065552,127.821152 1621.689941,126.097389
	C1621.689941,126.097389 1621.822144,126.069771 1621.871094,125.768883
	C1621.532837,124.671257 1621.145752,123.874519 1620.758667,123.077797
	C1620.758667,123.077812 1620.878418,123.075821 1620.888306,122.809250
	C1620.569702,122.045090 1620.241211,121.547516 1619.912842,121.049927
	C1612.206421,107.168022 1600.533813,101.339706 1584.578857,101.511681
	C1541.938477,101.971268 1499.289429,101.568161 1456.644531,101.710854
	C1431.977051,101.793381 1415.831909,125.004860 1425.001831,147.237503
	C1429.799927,158.870468 1438.882080,165.620361 1451.977905,168.168777
	C1454.595703,168.744110 1456.571167,168.994003 1458.546997,168.995071
	C1500.146118,169.017532 1541.745361,169.057922 1583.344116,168.931046
	C1586.965454,168.919998 1589.725830,169.475723 1591.261841,172.996002
	C1591.360718,174.725311 1591.459595,176.454620 1591.099609,178.779877
	C1590.489258,188.590607 1590.326416,197.805283 1590.232300,207.020584
	C1590.229004,207.341064 1590.911743,207.668549 1591.274658,207.992798
	C1591.371826,209.719925 1591.468872,211.447037 1591.130737,213.739517
	C1590.448975,215.860367 1590.202515,217.415863 1589.490234,218.973724
	C1544.282837,218.979477 1499.541382,218.973175 1454.799927,219.019135
	C1452.869995,219.021118 1450.940552,219.504745 1449.010864,219.764008
	C1416.287720,216.688568 1392.190918,200.437958 1378.308105,170.845459
	C1354.097778,119.239243 1385.473877,60.282253 1441.781860,50.389187
	C1446.021362,49.644337 1450.395752,49.389725 1454.708374,49.382637
	C1498.700562,49.310333 1542.692871,49.332035 1586.685181,49.336670
	C1629.702759,49.341206 1662.081299,74.513855 1672.547485,116.947357
	C1672.957153,121.438835 1673.617188,125.253990 1674.277100,129.069153
	C1674.443115,130.500824 1674.609131,131.932495 1674.555908,133.874130
	C1674.446899,134.901367 1674.557251,135.418625 1674.667603,135.935883
	C1674.727905,162.978775 1674.788208,190.021667 1674.371582,217.601379
	C1672.115601,218.421204 1670.338013,218.939301 1668.557495,218.949448
	C1655.948730,219.021286 1643.335083,219.157806 1630.733154,218.854797
	C1628.046997,218.790192 1625.402344,217.006500 1622.738525,216.014801
z"/>
<path fill="#3966A1" opacity="1.000000" stroke="none"
	d="
M1134.192383,99.821609
	C1150.383545,121.434578 1166.345459,142.774536 1182.343140,164.087494
	C1190.658081,175.165085 1202.091797,175.121552 1210.440063,163.986984
	C1238.013184,127.211639 1265.604736,90.449936 1293.057495,53.584885
	C1295.388306,50.455055 1297.758667,49.195721 1301.692261,49.238892
	C1320.843994,49.449089 1339.999146,49.333931 1360.136230,49.333931
	C1358.849365,51.311981 1358.001343,52.787868 1356.991455,54.143024
	C1321.866577,101.275139 1286.715454,148.387680 1251.591553,195.520447
	C1224.076782,232.442307 1170.351440,233.498032 1142.422119,196.829895
	C1105.897705,148.877411 1070.218262,100.281319 1034.182495,51.956722
	C1033.795532,51.437790 1033.505005,50.846924 1032.909424,49.857830
	C1034.282593,49.653381 1035.328125,49.363518 1036.374268,49.361858
	C1055.038086,49.332268 1073.703369,49.458237 1092.364502,49.232109
	C1096.028687,49.187706 1097.745605,51.074875 1099.569458,53.519043
	C1111.024414,68.869354 1122.505493,84.200134 1134.192383,99.821609
z"/>
<path fill="#575757" opacity="1.000000" stroke="none"
	d="
M650.000671,309.829834
	C662.331543,309.862915 674.173950,309.582275 685.990540,310.013062
	C699.065674,310.489746 710.654419,315.202179 720.606995,324.389496
	C728.705811,317.293243 737.754150,312.241791 748.389099,310.578003
	C751.336365,310.116913 754.348755,309.892395 757.332886,309.877747
	C772.164673,309.805023 786.997192,309.781799 801.829041,309.847076
	C830.690186,309.974091 853.903809,332.737213 854.388245,361.707825
	C854.688660,379.676178 854.443970,397.653656 854.443970,416.026245
	C843.608398,416.026245 833.066589,416.026245 821.998901,416.026245
	C821.998901,414.375183 821.998962,412.751251 821.998901,411.127319
	C821.998230,395.795166 822.025757,380.462952 821.988586,365.130890
	C821.955078,351.340790 813.952393,342.778748 800.250244,342.494171
	C786.090759,342.200104 771.917175,342.235260 757.755920,342.481812
	C745.428833,342.696442 737.078125,351.549438 737.018982,364.050690
	C736.945618,379.549133 737.000488,395.048218 736.999939,410.547028
	C736.999878,412.346741 736.999939,414.146423 736.999939,416.176941
	C725.941833,416.176941 715.359558,416.176941 704.199646,416.176941
	C704.199646,414.319763 704.199768,412.700165 704.199585,411.080536
	C704.198059,395.581726 704.203308,380.082947 704.192810,364.584137
	C704.183838,351.358276 696.375488,342.845673 683.098083,342.513580
	C668.608521,342.151154 654.096375,342.187195 639.605652,342.532928
	C627.765930,342.815430 619.536255,351.659821 619.446655,363.644714
	C619.331970,378.975983 619.421326,394.308807 619.422668,409.640961
	C619.422852,411.624390 619.422668,413.607819 619.422668,416.045654
	C608.585999,416.045654 598.037048,416.045654 587.063965,416.045654
	C586.985291,414.452637 586.839417,412.852264 586.837585,411.251770
	C586.819641,395.253021 586.788086,379.254150 586.832397,363.255524
	C586.915405,333.295685 610.116638,310.003967 640.001892,309.831085
	C643.168091,309.812775 646.334534,309.829437 650.000671,309.829834
z"/>
<path fill="#575757" opacity="1.000000" stroke="none"
	d="
M1628.020996,344.634644
	C1624.278198,343.804077 1620.877075,342.638641 1617.469238,342.619476
	C1590.479736,342.467407 1563.489014,342.500610 1536.498657,342.546875
	C1523.418701,342.569336 1514.631226,350.950043 1514.567139,363.279053
	C1514.504883,375.260590 1523.700562,383.813995 1536.707153,383.821594
	C1562.531250,383.836700 1588.355469,383.828094 1614.179565,383.829285
	C1615.977905,383.829346 1617.776245,383.829285 1619.870605,383.829285
	C1619.870605,394.798920 1619.870605,405.377136 1619.870605,416.530975
	C1617.983276,416.530975 1616.192017,416.531616 1614.400879,416.530884
	C1587.744385,416.520172 1561.087769,416.520966 1534.431274,416.495270
	C1505.909424,416.467743 1482.354004,393.172424 1481.826904,364.499573
	C1481.283691,334.945709 1503.737061,310.442993 1532.738159,309.956146
	C1562.219238,309.461243 1591.720581,309.490540 1621.202881,309.947662
	C1649.033081,310.379150 1671.889893,334.245270 1671.989502,362.100800
	C1672.049072,378.761292 1672.005249,395.422180 1671.993896,412.082886
	C1671.992920,413.397430 1671.880981,414.711914 1671.810059,416.256165
	C1661.008667,416.256165 1650.403320,416.256165 1639.190308,416.256165
	C1639.190308,412.732422 1639.190063,409.457489 1639.190430,406.182556
	C1639.192017,392.354156 1638.983398,378.521423 1639.270630,364.698944
	C1639.456055,355.778503 1635.840942,349.342529 1628.020996,344.634644
z"/>
<path fill="#575757" opacity="1.000000" stroke="none"
	d="
M1049.163452,416.528717
	C1040.393433,416.525085 1032.067993,416.525085 1022.998169,416.525085
	C1022.998169,414.460358 1022.998108,412.711365 1022.998169,410.962372
	C1022.998474,395.298553 1023.026794,379.634705 1022.990295,363.970978
	C1022.961792,351.742981 1014.756042,342.631195 1002.721130,342.525543
	C974.562561,342.278381 946.398254,342.321320 918.239746,342.595642
	C907.337463,342.701843 898.821045,351.270752 898.170166,361.683380
	C897.501038,372.387726 904.766724,381.703461 915.317688,383.536530
	C917.105164,383.847076 918.965027,383.815521 920.791504,383.816681
	C947.119995,383.833740 973.448547,383.826416 999.777039,383.839722
	C1000.918762,383.840302 1002.060303,383.982758 1003.498657,384.078979
	C1003.498657,394.794189 1003.498657,405.355255 1003.498657,416.424957
	C1001.597717,416.424957 999.967468,416.424988 998.337219,416.424927
	C972.008728,416.424133 945.680115,416.450806 919.351685,416.414978
	C891.573669,416.377197 868.398376,396.099518 865.863831,369.682556
	C863.054871,340.404388 880.850891,316.130493 909.277527,310.642059
	C912.520813,310.015869 915.896912,309.864166 919.212097,309.857239
	C946.873596,309.799561 974.535278,309.795929 1002.196838,309.838043
	C1032.271118,309.883820 1055.710815,333.328766 1055.791016,363.428894
	C1055.837646,380.897797 1055.799561,398.366882 1055.799561,416.532349
	C1053.492065,416.532349 1051.550049,416.532349 1049.163452,416.528717
z"/>
<path fill="#3966A0" opacity="1.000000" stroke="none"
	d="
M269.134705,59.716064
	C263.455566,57.904694 258.116486,56.260445 252.741989,54.741428
	C243.692764,52.183800 234.621063,49.705677 225.253937,47.109608
	C225.253937,35.386921 225.253937,23.463280 225.253937,11.273714
	C228.062820,11.273714 230.951309,10.730244 233.553207,11.363741
	C248.175507,14.923888 262.735443,18.741793 277.303925,22.520922
	C295.130432,27.145191 311.807068,34.750809 327.687469,43.771660
	C346.176483,54.274364 363.174408,66.880524 378.438690,81.979164
	C391.588776,94.986519 403.157990,109.137642 413.000458,124.607727
	C419.661530,135.077423 425.306915,146.305603 430.345459,157.665176
	C435.878540,170.139771 440.943878,182.931671 444.825714,195.997467
	C448.578430,208.628540 450.565521,221.784195 453.450073,235.279602
	C438.265228,235.279602 424.048431,235.279602 409.355469,235.279602
	C408.226593,227.962219 407.452911,220.549423 405.869812,213.313721
	C404.035370,204.929245 402.206604,196.419525 399.091278,188.467209
	C393.897278,175.208710 388.318390,162.014130 381.676453,149.439728
	C377.122131,140.817505 371.173492,132.675583 364.622803,125.426193
	C355.610809,115.452980 345.865021,106.031975 335.660645,97.275124
	C322.817841,86.254150 308.359467,77.468498 292.937195,70.395340
	C285.150513,66.824089 277.287384,63.419456 269.134705,59.716064
z"/>
<path fill="#575757" opacity="1.000000" stroke="none"
	d="
M1098.000732,404.977081
	C1098.000732,408.959320 1098.000732,412.446503 1098.000732,416.233154
	C1087.127686,416.233154 1076.535767,416.233154 1065.567627,416.233154
	C1065.567627,369.959045 1065.567627,323.776337 1065.567627,277.293701
	C1076.186279,277.293701 1086.767456,277.293701 1097.838867,277.293701
	C1097.838867,300.301422 1097.838867,323.358551 1097.838867,346.998444
	C1104.750854,346.998444 1111.185669,346.998627 1117.620483,346.998444
	C1128.449585,346.998138 1139.282959,347.161407 1150.104126,346.867218
	C1152.437378,346.803802 1155.275146,345.659271 1156.945557,344.045197
	C1167.606567,333.744110 1177.919678,323.083038 1188.581055,312.782471
	C1190.253662,311.166412 1193.101562,310.003693 1195.432129,309.957947
	C1208.866699,309.694214 1222.309204,309.829346 1235.729492,309.829346
	C1218.173584,327.324921 1200.813721,344.625275 1183.205322,362.173218
	C1201.481567,380.528931 1218.899780,398.022949 1237.328491,416.531952
	C1231.216919,416.531952 1226.453003,416.533325 1221.689087,416.531647
	C1212.859253,416.528564 1204.023315,416.700043 1195.203857,416.395599
	C1192.999756,416.319519 1190.330200,415.243073 1188.756348,413.717041
	C1177.992920,403.280853 1167.524414,392.540771 1156.791382,382.072449
	C1155.299438,380.617249 1152.887695,379.323730 1150.884155,379.297638
	C1134.226929,379.080322 1117.565552,379.176025 1100.905518,379.188293
	C1100.106201,379.188904 1099.306885,379.293884 1098.000732,379.385956
	C1098.000732,387.922791 1098.000732,396.202423 1098.000732,404.977081
z"/>
<path fill="#575757" opacity="1.000000" stroke="none"
	d="
M1465.632080,352.496857
	C1465.725952,373.840515 1465.725952,394.779938 1465.725952,416.073059
	C1455.550415,416.073059 1445.126221,416.073059 1434.051880,416.073059
	C1433.981079,414.500061 1433.836426,412.759674 1433.834473,411.019135
	C1433.818604,396.188141 1433.838989,381.357117 1433.827759,366.526123
	C1433.815674,350.462555 1425.899170,342.447632 1410.007690,342.435333
	C1387.844482,342.418213 1365.681274,342.422241 1343.518066,342.434082
	C1328.633179,342.442017 1320.333496,350.599670 1320.200073,365.634857
	C1320.067017,380.631317 1320.171265,395.629883 1320.171631,410.627533
	C1320.171631,412.415039 1320.171753,414.202545 1320.171753,416.171021
	C1309.178345,416.171021 1298.770752,416.171021 1288.079102,416.171021
	C1287.986328,414.479004 1287.838135,413.021698 1287.837036,411.564270
	C1287.823730,394.900208 1287.777588,378.235931 1287.848389,361.572174
	C1287.965332,334.069733 1310.996338,310.340851 1338.593872,309.923767
	C1364.250610,309.535950 1389.922119,309.555420 1415.579224,309.932068
	C1439.516357,310.283447 1459.590454,327.572876 1465.632080,352.496857
z"/>
<path fill="#3A66A0" opacity="1.000000" stroke="none"
	d="
M340.515656,208.616943
	C335.550354,198.617691 331.119751,188.774872 325.952728,179.335159
	C318.499664,165.719116 308.291901,154.235596 296.767273,143.895828
	C286.590698,134.765503 275.201904,127.466621 262.808685,121.793800
	C250.966110,116.373055 238.936417,111.402779 225.344971,110.558327
	C225.344971,98.035027 225.344971,85.650230 225.344971,73.082405
	C230.681366,73.883461 235.987457,74.265747 241.078171,75.521240
	C256.794525,79.397263 272.239319,84.237144 286.667084,91.685005
	C310.300476,103.884987 330.784454,120.093384 346.301849,141.841934
	C354.445648,153.255920 362.735352,164.909927 368.530975,177.567368
	C375.630859,193.073318 380.288330,209.709641 385.749878,225.941986
	C386.668945,228.673447 386.314545,231.833389 386.617737,235.671310
	C384.553558,235.671310 382.498077,235.671097 380.442566,235.671356
	C371.613434,235.672501 362.769714,235.373093 353.961273,235.800659
	C349.495667,236.017456 347.912140,234.237640 346.909210,230.311951
	C345.075409,223.134003 342.807922,216.066849 340.515656,208.616943
z"/>
<path fill="#416AA2" opacity="1.000000" stroke="none"
	d="
M530.903870,15.171434
	C530.904114,162.894241 530.904114,310.135986 530.904114,457.711243
	C525.635193,457.711243 520.749390,457.711243 515.578979,457.711243
	C515.578979,308.869537 515.578979,160.177429 515.578979,10.791936
	C520.009277,10.791936 524.290894,10.569528 528.513672,10.968993
	C529.419556,11.054688 530.112549,13.390883 530.903870,15.171434
z"/>
<path fill="#3A66A0" opacity="1.000000" stroke="none"
	d="
M233.539047,133.839264
	C245.111206,136.075531 255.723892,140.595474 265.947205,146.463867
	C277.737213,153.231567 288.167175,161.607574 296.716156,172.011673
	C303.073914,179.749054 308.779236,188.143082 313.831482,196.795670
	C318.108734,204.120972 321.258698,212.144455 324.471924,220.036316
	C326.434570,224.856766 327.573792,230.012466 329.200806,235.408875
	C316.019043,235.408875 303.428955,235.408875 290.730042,235.408875
	C287.848633,228.736786 285.274475,221.786240 281.915405,215.238358
	C277.286133,206.214462 270.875244,198.250763 262.806061,192.246628
	C253.141052,185.055069 242.634888,178.993973 232.018005,171.937531
	C230.630615,171.346542 229.718246,171.261322 228.805862,171.176086
	C228.805862,171.176086 228.911514,171.145950 228.791718,170.826111
	C227.781342,168.708771 226.174072,166.932053 226.121246,165.110260
	C225.857727,156.024078 226.064896,146.925385 225.965042,137.832642
	C225.935913,135.180313 226.653030,133.727097 229.578217,133.970764
	C230.885773,134.079681 232.218018,133.892227 233.539047,133.839264
z"/>
<path fill="#3966A0" opacity="1.000000" stroke="none"
	d="
M182.593750,223.760132
	C193.990891,207.916794 207.639481,203.993805 224.637238,208.522598
	C243.480545,213.543152 254.208694,231.366486 250.505997,251.691833
	C248.070786,265.059540 239.995041,274.660980 227.810547,279.222443
	C212.816574,284.835693 197.064072,282.285004 185.727448,269.011597
	C175.234116,256.725616 173.557037,242.733276 180.503571,227.934280
	C181.116989,226.627472 181.710220,225.311188 182.593750,223.760132
z"/>
<path fill="#565656" opacity="1.000000" stroke="none"
	d="
M1272.422485,386.000122
	C1272.422607,396.279602 1272.422607,406.059021 1272.422607,416.126984
	C1261.446289,416.126984 1251.015137,416.126984 1240.202637,416.126984
	C1240.202637,380.963287 1240.202637,345.746674 1240.202637,310.176392
	C1250.672241,310.176392 1261.219727,310.176392 1272.422363,310.176392
	C1272.422363,335.340576 1272.422363,360.420349 1272.422485,386.000122
z"/>
<path fill="#565656" opacity="1.000000" stroke="none"
	d="
M1272.422729,286.008728
	C1272.422729,289.484680 1272.422729,292.465088 1272.422729,295.806458
	C1261.611328,295.806458 1251.066040,295.806458 1240.170044,295.806458
	C1240.170044,289.809662 1240.170044,283.746185 1240.170044,277.337463
	C1250.598389,277.337463 1261.142700,277.337463 1272.422729,277.337463
	C1272.422729,280.024292 1272.422729,282.768738 1272.422729,286.008728
z"/>
<path fill="#45658C" opacity="1.000000" stroke="none"
	d="
M960.986755,122.410019
	C961.986694,124.992004 963.839417,127.973724 963.864380,130.970657
	C964.090210,158.089371 964.112244,185.211670 963.885681,212.330368
	C963.846497,217.022186 965.263062,218.150650 969.771851,218.109360
	C983.556580,217.983154 997.346130,218.419907 1011.132812,218.371109
	C1012.091614,218.367706 1013.817078,216.212906 1013.868225,215.002838
	C1014.142212,208.525467 1013.976379,202.030304 1014.001465,195.541428
	C1014.086304,173.590820 1014.187439,151.640289 1014.533081,129.365387
	C1014.862671,155.831772 1014.942505,182.622467 1015.018982,209.413177
	C1015.028442,212.724136 1015.020203,216.035141 1015.020203,219.689972
	C997.726562,219.689972 980.682373,219.689972 962.983826,219.689972
	C962.983826,217.985672 962.983948,216.224899 962.983826,214.464127
	C962.981995,188.831329 963.082947,163.197754 962.888672,137.566422
	C962.851379,132.645370 961.653992,127.733124 960.986755,122.410019
z"/>
<path fill="#44638C" opacity="1.000000" stroke="none"
	d="
M773.790649,125.495819
	C774.514771,127.829391 775.883179,130.592438 775.900146,133.363770
	C776.062561,159.827225 776.080383,186.292633 775.907715,212.755951
	C775.880737,216.881134 777.013489,218.216293 781.205017,218.096725
	C791.183472,217.812057 801.175598,218.005798 811.162170,218.006134
	C815.865967,218.006302 820.569763,218.006165 826.002014,218.006165
	C826.002014,215.543045 826.002136,213.606949 826.002075,211.670853
	C826.001404,185.039948 825.979004,158.408997 826.046631,131.778275
	C826.051392,129.917786 826.722961,128.059021 827.468689,126.089996
	C827.575806,133.275208 827.090881,140.568970 827.059692,147.864685
	C826.957825,171.660828 827.021606,195.457672 827.021606,219.640930
	C809.695251,219.640930 792.516785,219.640930 774.788330,219.640930
	C774.788330,217.791809 774.788086,216.016861 774.788269,214.241913
	C774.790466,190.107056 774.850220,165.971939 774.749817,141.837509
	C774.727783,136.533508 774.136963,131.231857 773.790649,125.495819
z"/>
<path fill="#5F7BA0" opacity="1.000000" stroke="none"
	d="
M587.068604,125.407089
	C587.441956,126.933220 587.921753,128.865036 587.925110,130.797714
	C587.973389,158.250519 588.060852,185.704224 587.849243,213.155502
	C587.815918,217.472733 589.725220,219.008270 593.304504,218.954590
	C607.406677,218.743134 621.506104,218.336792 635.604980,217.947403
	C636.390381,217.925720 637.162048,217.406921 638.331177,217.029922
	C638.147278,217.986176 637.581177,219.939987 636.996094,219.945694
	C620.239990,220.109573 603.481995,220.077866 586.202026,220.077866
	C586.202026,217.900925 586.201904,216.278168 586.202087,214.655411
	C586.204773,188.854202 586.177185,163.052902 586.243225,137.251862
	C586.252991,133.438385 586.705750,129.626038 587.068604,125.407089
z"/>
<path fill="#4A6583" opacity="1.000000" stroke="none"
	d="
M1591.466309,172.631104
	C1589.725830,169.475723 1586.965454,168.919998 1583.344116,168.931046
	C1541.745361,169.057922 1500.146118,169.017532 1458.546997,168.995071
	C1456.571167,168.994003 1454.595703,168.744110 1452.333252,168.312698
	C1498.238159,168.015305 1544.429932,168.015305 1590.749023,168.015305
	C1591.076294,169.524719 1591.373657,170.895447 1591.466309,172.631104
z"/>
<path fill="#496380" opacity="1.000000" stroke="none"
	d="
M1449.471191,219.862610
	C1450.940552,219.504745 1452.869995,219.021118 1454.799927,219.019135
	C1499.541382,218.973175 1544.282837,218.979477 1589.686279,219.046738
	C1590.604248,219.247559 1590.801392,219.438354 1590.939697,219.689789
	C1589.956787,219.797195 1588.973755,219.998550 1587.990845,219.998520
	C1541.971069,219.997055 1495.951172,219.978119 1449.471191,219.862610
z"/>
<path fill="#4B6483" opacity="1.000000" stroke="none"
	d="
M1622.575195,146.455688
	C1623.143921,146.994690 1623.926514,147.978119 1623.930420,148.964584
	C1624.001343,167.244019 1623.985107,185.523865 1623.950317,203.803574
	C1623.949219,204.411057 1623.561035,205.017822 1623.038330,205.806641
	C1622.594116,193.083862 1622.432617,180.179596 1622.348877,167.274796
	C1622.304810,160.484161 1622.396362,153.692642 1622.575195,146.455688
z"/>
<path fill="#4B6483" opacity="1.000000" stroke="none"
	d="
M1622.584106,216.403809
	C1625.402344,217.006500 1628.046997,218.790192 1630.733154,218.854797
	C1643.335083,219.157806 1655.948730,219.021286 1668.557495,218.949448
	C1670.338013,218.939301 1672.115601,218.421204 1674.284912,218.061371
	C1673.897949,218.662247 1673.125000,219.925308 1672.342651,219.931198
	C1656.644897,220.049438 1640.945679,219.983078 1625.247559,220.065887
	C1622.724731,220.079193 1621.993774,219.068909 1622.584106,216.403809
z"/>
<path fill="#4A6583" opacity="1.000000" stroke="none"
	d="
M1591.421875,207.546295
	C1590.911743,207.668549 1590.229004,207.341064 1590.232300,207.020584
	C1590.326416,197.805283 1590.489258,188.590607 1590.955078,179.192169
	C1591.369141,188.372269 1591.469116,197.736053 1591.421875,207.546295
z"/>
<path fill="#46658D" opacity="1.000000" stroke="none"
	d="
M233.254700,133.542206
	C232.218018,133.892227 230.885773,134.079681 229.578217,133.970764
	C226.653030,133.727097 225.935913,135.180313 225.965042,137.832642
	C226.064896,146.925385 225.857727,156.024078 226.121246,165.110260
	C226.174072,166.932053 227.781342,168.708771 228.780746,170.879944
	C227.587662,170.098663 225.182892,168.970093 225.154541,167.784653
	C224.872818,156.008728 224.983826,144.223389 224.983826,131.664642
	C227.964752,132.254562 230.467545,132.749863 233.254700,133.542206
z"/>
<path fill="#5F7BA0" opacity="1.000000" stroke="none"
	d="
M638.946777,131.627106
	C639.355286,128.782410 639.872253,125.559677 640.710022,122.163605
	C640.372314,125.076538 639.713867,128.162811 638.946777,131.627106
z"/>
<path fill="#45658C" opacity="1.000000" stroke="none"
	d="
M1014.437256,124.612885
	C1013.662537,121.861488 1012.980835,118.740929 1012.534790,115.328537
	C1013.357056,118.105713 1013.943665,121.174713 1014.437256,124.612885
z"/>
<path fill="#4B6483" opacity="1.000000" stroke="none"
	d="
M1674.315674,128.616211
	C1673.617188,125.253990 1672.957153,121.438835 1672.536621,117.331696
	C1673.302124,120.747566 1673.828125,124.455421 1674.315674,128.616211
z"/>
<path fill="#45658C" opacity="1.000000" stroke="none"
	d="
M1012.088684,112.590294
	C1011.066162,110.192642 1010.046082,107.406731 1009.050476,104.195923
	C1010.080322,106.581367 1011.085754,109.391701 1012.088684,112.590294
z"/>
<path fill="#4A6583" opacity="1.000000" stroke="none"
	d="
M1591.226440,219.468750
	C1590.801392,219.438354 1590.604248,219.247559 1590.152344,219.044373
	C1590.202515,217.415863 1590.448975,215.860367 1590.987549,214.151642
	C1591.357544,215.748184 1591.435303,217.497955 1591.226440,219.468750
z"/>
<path fill="#45658C" opacity="1.000000" stroke="none"
	d="
M1008.868896,102.669456
	C1007.923218,101.241867 1006.971069,99.467415 1006.031982,97.305405
	C1006.984253,98.719429 1007.923279,100.521004 1008.868896,102.669456
z"/>
<path fill="#4B6483" opacity="1.000000" stroke="none"
	d="
M1621.689941,126.516403
	C1622.065552,127.821152 1622.441040,129.544922 1622.636841,131.574005
	C1622.201416,130.231354 1621.945801,128.583374 1621.689941,126.516403
z"/>
<path fill="#45658C" opacity="1.000000" stroke="none"
	d="
M957.870605,116.395958
	C958.530029,117.118134 959.266602,118.158806 960.009277,119.584152
	C959.326111,118.884041 958.636963,117.799248 957.870605,116.395958
z"/>
<path fill="#44638C" opacity="1.000000" stroke="none"
	d="
M828.983276,122.690918
	C828.996704,122.006752 829.177063,121.041893 829.673706,120.037430
	C829.709961,120.801964 829.430115,121.606087 828.983276,122.690918
z"/>
<path fill="#4B6483" opacity="1.000000" stroke="none"
	d="
M1620.774536,123.420105
	C1621.145752,123.874519 1621.532837,124.671257 1621.857666,125.835144
	C1621.460449,125.389008 1621.125488,124.575714 1620.774536,123.420105
z"/>
<path fill="#46658D" opacity="1.000000" stroke="none"
	d="
M229.002884,171.471130
	C229.718246,171.261322 230.630615,171.346542 231.770432,171.695679
	C231.065216,171.895111 230.132553,171.830627 229.002884,171.471130
z"/>
<path fill="#5F7BA0" opacity="1.000000" stroke="none"
	d="
M643.240784,117.887650
	C643.309753,117.383278 643.603943,116.742668 644.162476,116.013840
	C644.106506,116.534218 643.786316,117.142822 643.240784,117.887650
z"/>
<path fill="#45658C" opacity="1.000000" stroke="none"
	d="
M955.680969,113.536179
	C956.049194,113.630508 956.491638,114.010811 956.961060,114.714798
	C956.577026,114.633041 956.166138,114.227592 955.680969,113.536179
z"/>
<path fill="#4B6483" opacity="1.000000" stroke="none"
	d="
M1674.755005,135.629364
	C1674.557251,135.418625 1674.446899,134.901367 1674.497559,134.229340
	C1674.719971,134.490677 1674.781128,134.906769 1674.755005,135.629364
z"/>
<path fill="#44638C" opacity="1.000000" stroke="none"
	d="
M831.302246,117.899780
	C831.279358,117.481163 831.511353,116.892281 832.058350,116.200020
	C832.101257,116.640930 831.829224,117.185219 831.302246,117.899780
z"/>
<path fill="#44638C" opacity="1.000000" stroke="none"
	d="
M830.224548,119.804840
	C830.180969,119.431206 830.366699,118.877022 830.812988,118.174438
	C830.866943,118.558784 830.660461,119.091537 830.224548,119.804840
z"/>
<path fill="#4B6483" opacity="1.000000" stroke="none"
	d="
M1619.925293,121.357300
	C1620.241211,121.547516 1620.569702,122.045090 1620.867432,122.865356
	C1620.536865,122.680237 1620.237305,122.172440 1619.925293,121.357300
z"/>
<path fill="#5F7BA0" opacity="1.000000" stroke="none"
	d="
M642.458435,119.262787
	C642.324829,119.063576 642.429077,118.698463 642.778198,118.170898
	C642.914124,118.371269 642.805237,118.734085 642.458435,119.262787
z"/>
<path fill="#45658C" opacity="1.000000" stroke="none"
	d="
M954.698120,112.387543
	C954.928833,112.310661 955.289429,112.508080 955.717041,113.019592
	C955.465332,113.109734 955.146729,112.885796 954.698120,112.387543
z"/>
<path fill="#5F7BA0" opacity="1.000000" stroke="none"
	d="
M641.476807,121.309158
	C641.328857,121.112465 641.418213,120.734985 641.743347,120.173447
	C641.890808,120.369041 641.802429,120.748711 641.476807,121.309158
z"/>
<path fill="#45658C" opacity="1.000000" stroke="none"
	d="
M960.054565,120.306061
	C960.283875,120.304657 960.542725,120.616989 960.840698,121.241493
	C960.614563,121.242378 960.349304,120.931084 960.054565,120.306061
z"/>
</svg>
